<?xml version="1.0" standalone="no"?>
<!DOCTYPE svg PUBLIC "-//W3C//DTD SVG 20010904//EN"
 "http://www.w3.org/TR/2001/REC-SVG-20010904/DTD/svg10.dtd">
<svg version="1.0" xmlns="http://www.w3.org/2000/svg"
 width="900.000000pt" height="231.000000pt" viewBox="0 0 900.000000 231.000000"
 preserveAspectRatio="xMidYMid meet">
<metadata>
Created by potrace 1.10, written by Peter Selinger 2001-2011
</metadata>
<g transform="translate(0.000000,231.000000) scale(0.100000,-0.100000)"
fill="#000000" stroke="none">
<path d="M2366 2295 c-3 -8 -16 -20 -28 -26 -32 -14 -68 -73 -68 -109 0 -38
20 -77 55 -110 23 -22 35 -25 102 -25 73 0 75 1 109 37 30 34 34 44 34 93 0
58 -28 115 -57 115 -7 0 -18 9 -25 20 -10 16 -24 20 -64 20 -37 0 -54 -4 -58
-15z"/>
<path d="M1742 2128 c-8 -8 -12 -45 -12 -100 l0 -88 -40 0 c-51 0 -60 -17 -60
-118 0 -88 6 -99 60 -104 l35 -3 6 -210 c6 -234 13 -266 69 -324 55 -57 131
-81 251 -81 l100 0 -3 108 -3 107 -63 5 c-91 7 -92 9 -92 209 0 91 4 171 8
178 4 7 37 13 77 15 l70 3 0 105 0 105 -75 5 -75 5 -3 85 c-2 65 -6 88 -19 98
-23 16 -214 17 -231 0z"/>
<path d="M3622 2127 c-6 -7 -12 -51 -14 -97 l-3 -85 -43 -6 c-24 -3 -48 -12
-53 -20 -5 -8 -9 -51 -9 -96 0 -91 8 -103 69 -103 40 0 39 1 44 -250 3 -202 3
-206 29 -246 56 -87 143 -124 289 -124 79 0 98 3 103 16 3 9 6 53 6 99 0 98
-6 105 -88 105 -38 0 -53 5 -70 23 -22 23 -22 30 -20 198 l3 174 60 3 c111 4
105 -2 105 112 0 114 6 108 -105 112 l-60 3 -5 95 -5 95 -111 3 c-83 2 -114
-1 -122 -11z"/>
<path d="M203 1909 c-92 -45 -152 -119 -191 -240 -15 -45 -16 -251 -1 -298 35
-111 108 -203 199 -251 38 -20 60 -23 145 -24 108 0 158 16 217 71 33 32 48
23 48 -28 l0 -40 123 3 122 3 3 404 c2 295 -1 407 -9 418 -9 10 -37 13 -123
11 l-111 -3 -3 -35 c-5 -62 -9 -64 -54 -28 -72 56 -108 68 -211 67 -81 0 -99
-4 -154 -30z m298 -203 c49 -21 85 -63 104 -124 29 -89 -4 -192 -77 -238 -86
-55 -177 -36 -238 48 -28 38 -30 48 -30 124 0 64 4 91 19 115 46 75 143 108
222 75z"/>
<path d="M1070 1930 c-13 -8 -15 -66 -18 -406 -2 -293 0 -400 9 -410 9 -12 37
-14 128 -12 l116 3 5 230 c6 256 11 278 72 311 19 10 65 20 108 23 l75 6 3
133 3 132 -34 0 c-48 0 -115 -32 -170 -81 -51 -45 -55 -43 -59 31 l-3 45 -110
3 c-60 1 -117 -2 -125 -8z"/>
<path d="M2307 1933 c-4 -3 -7 -192 -7 -420 l0 -414 123 3 122 3 3 404 c1 290
-1 408 -9 417 -8 10 -40 14 -119 14 -58 0 -110 -3 -113 -7z"/>
<path d="M2910 1925 c-14 -8 -32 -14 -40 -15 -25 0 -106 -77 -129 -120 -27
-52 -29 -163 -4 -200 59 -90 113 -119 293 -160 50 -12 105 -33 124 -49 24 -20
19 -57 -10 -80 -54 -42 -158 -19 -188 40 -11 23 -17 24 -134 27 -97 2 -123 0
-128 -11 -9 -24 46 -125 92 -167 24 -22 70 -52 101 -67 53 -24 69 -26 189 -27
108 -1 135 2 157 17 14 9 31 17 38 17 22 0 87 61 113 104 21 36 26 58 26 110
0 103 -50 173 -152 212 -85 33 -151 54 -173 54 -25 0 -107 37 -117 53 -17 27
-8 56 26 76 18 12 41 21 49 21 36 0 93 -32 116 -65 l24 -35 102 0 c129 0 137
6 104 85 -33 80 -79 129 -154 164 -61 29 -72 31 -183 31 -82 -1 -124 -5 -142
-15z"/>
<path d="M4384 1922 c-110 -45 -185 -118 -234 -227 -19 -42 -22 -69 -23 -171
-1 -119 7 -163 44 -224 5 -8 13 -24 18 -35 17 -37 95 -104 161 -136 63 -32 69
-33 190 -32 130 0 135 1 240 58 55 30 150 157 150 200 0 16 3 16 -154 17
l-108 0 -35 -34 c-31 -30 -39 -33 -98 -33 -75 0 -110 20 -138 79 -35 73 -45
71 268 74 208 2 281 5 287 15 22 35 -6 201 -48 277 -34 63 -97 120 -173 157
-51 26 -67 28 -181 30 -98 1 -134 -2 -166 -15z m258 -215 c30 -23 53 -69 44
-92 -4 -12 -29 -15 -144 -15 -153 0 -170 6 -147 49 20 39 60 72 97 81 47 11
118 0 150 -23z"/>
<path d="M6400 1192 c-84 -23 -125 -122 -81 -197 22 -38 86 -75 129 -75 70 0
139 52 149 113 15 93 -31 154 -123 162 -27 2 -60 1 -74 -3z"/>
<path d="M5767 1034 c-4 -4 -7 -44 -7 -88 0 -45 -4 -86 -8 -93 -4 -6 -25 -13
-47 -15 l-40 -3 0 -105 0 -105 45 -5 45 -5 6 -205 c3 -113 10 -218 14 -235 17
-63 53 -103 125 -140 45 -23 251 -35 275 -15 11 9 15 33 15 96 0 103 -9 114
-89 114 -31 0 -62 5 -69 12 -8 8 -12 66 -12 195 l0 183 64 0 c99 0 96 -3 96
110 0 112 -1 113 -88 110 -26 -1 -52 -1 -59 -1 -9 1 -13 31 -15 99 l-3 97
-121 3 c-66 1 -123 -1 -127 -4z"/>
<path d="M290 836 c-80 -22 -123 -47 -179 -105 -89 -92 -111 -152 -111 -306 0
-151 29 -235 111 -317 74 -74 165 -107 296 -108 104 0 164 15 231 58 87 56
162 162 162 228 l0 24 -128 0 -129 0 -26 -37 c-55 -78 -163 -75 -224 6 -32 41
-33 46 -33 137 0 73 4 103 19 132 32 62 53 75 126 76 57 1 67 -2 94 -28 17
-17 31 -36 31 -43 0 -19 35 -24 155 -21 109 3 110 3 113 28 7 64 -92 200 -178
244 -84 43 -233 57 -330 32z"/>
<path d="M1210 838 c-164 -47 -257 -138 -304 -299 -21 -74 -20 -159 3 -239 27
-91 47 -128 105 -185 87 -87 181 -119 326 -112 151 7 215 31 296 112 133 133
162 350 70 530 -29 57 -114 133 -186 166 -81 38 -228 50 -310 27z m213 -242
c52 -38 67 -78 67 -175 0 -82 -2 -91 -30 -129 -35 -48 -55 -60 -112 -68 -64
-8 -116 13 -155 64 -31 42 -33 48 -33 130 0 95 17 139 70 180 46 36 143 35
193 -2z"/>
<path d="M2310 835 c-57 -16 -102 -40 -125 -65 -23 -25 -35 -17 -35 25 0 21
-6 35 -16 39 -26 10 -204 7 -225 -4 -18 -10 -19 -25 -19 -404 0 -324 2 -396
14 -405 9 -8 52 -11 127 -9 l114 3 5 255 c5 233 7 258 25 290 30 51 77 72 149
66 49 -4 64 -10 91 -36 18 -18 36 -44 40 -59 4 -14 10 -136 14 -271 l6 -245
120 0 120 0 3 279 c2 261 1 284 -18 342 -23 68 -82 143 -134 172 -73 39 -176
50 -256 27z"/>
<path d="M3314 835 c-44 -11 -100 -38 -114 -56 -3 -3 -15 -9 -27 -13 -21 -7
-23 -4 -23 28 0 45 -11 48 -145 44 l-100 -3 0 -410 0 -410 120 0 120 0 6 245
c3 135 9 256 14 270 39 121 224 134 286 20 10 -19 15 -90 19 -280 l5 -255 114
-3 c75 -2 118 1 127 9 11 9 14 57 14 241 0 360 -22 446 -135 527 -77 55 -177
72 -281 46z"/>
<path d="M4145 835 c-126 -32 -221 -120 -271 -250 -29 -75 -25 -270 6 -340 54
-120 145 -201 260 -232 58 -16 203 -16 260 0 103 29 188 98 236 192 41 81 36
85 -107 85 -120 0 -121 0 -148 -29 -55 -59 -115 -74 -177 -45 -56 27 -112 109
-89 132 3 4 131 9 282 12 l276 5 10 29 c12 36 -8 172 -32 226 -36 79 -98 144
-181 189 -71 38 -226 51 -325 26z m195 -208 c49 -24 88 -81 77 -111 -6 -15
-23 -16 -154 -14 l-148 3 3 25 c4 38 33 72 82 98 55 28 83 28 140 -1z"/>
<path d="M5060 835 c-178 -49 -290 -204 -293 -405 -1 -129 38 -236 118 -316
83 -84 163 -114 300 -114 135 0 217 31 295 109 49 49 87 118 92 166 l3 30
-126 3 -125 3 -31 -39 c-38 -47 -94 -66 -151 -50 -72 20 -112 91 -112 199 0
148 80 232 193 201 38 -11 77 -40 77 -59 0 -24 40 -33 144 -33 132 0 138 2
130 47 -14 77 -86 170 -168 218 -89 52 -240 69 -346 40z"/>
<path d="M7030 838 c-127 -36 -214 -102 -266 -202 -56 -106 -68 -223 -35 -336
27 -91 47 -127 107 -187 80 -80 167 -112 308 -113 86 0 109 4 205 39 51 18
148 108 175 161 72 143 73 306 2 445 -29 57 -114 133 -186 166 -81 38 -228 50
-310 27z m213 -242 c52 -38 67 -78 67 -176 0 -85 -1 -90 -33 -132 -71 -93
-202 -90 -269 7 -24 36 -27 49 -28 123 0 94 19 146 67 178 55 37 145 37 196 0z"/>
<path d="M8130 835 c-57 -16 -102 -40 -125 -65 -23 -25 -35 -17 -35 25 0 21
-6 35 -16 39 -26 10 -204 7 -225 -4 -18 -10 -19 -25 -19 -410 l0 -400 23 -5
c12 -3 69 -5 127 -3 l105 3 5 255 c4 219 8 260 23 287 28 52 61 68 139 68 62
0 69 -2 101 -34 19 -18 38 -45 42 -60 4 -14 10 -136 14 -271 l6 -245 120 0
120 0 3 279 c2 261 1 284 -18 342 -23 68 -82 143 -134 172 -73 39 -176 50
-256 27z"/>
<path d="M6332 828 c-14 -14 -17 -784 -4 -806 7 -9 39 -12 128 -10 l119 3 5
399 c4 323 2 402 -8 413 -18 17 -223 18 -240 1z"/>
<path d="M8773 264 c-12 -3 -36 -21 -53 -40 -26 -30 -30 -42 -30 -92 1 -89 50
-132 149 -132 57 0 88 14 130 59 26 28 31 41 31 82 0 38 -4 49 -16 49 -9 0
-18 8 -21 18 -11 43 -113 73 -190 56z"/>
</g>
</svg>
